<svg class="hobbie_cell__img" xmlns="http://www.w3.org/2000/svg" x="0px" y="0px"
                            width="50" height="50"
                            viewBox="0 0 172 172"
                            style=" fill:#000000;"><g fill="none" fill-rule="nonzero" stroke="none" stroke-width="1" stroke-linecap="butt" stroke-linejoin="miter" stroke-miterlimit="10" stroke-dasharray="" stroke-dashoffset="0" font-family="none" font-weight="none" font-size="none" text-anchor="none" style="mix-blend-mode: normal"><path d="M0,172v-172h172v172z" fill="none"></path><g fill="#ead017"><path d="M33.755,6.88c-1.63937,0.30906 -2.82187,1.76031 -2.795,3.44v51.6h-17.2v6.88h-13.76v20.64h13.76v58.48c0,9.46 7.74,17.2 17.2,17.2h110.08c9.46,0 17.2,-7.74 17.2,-17.2v-58.48h13.76v-20.64h-13.76v-6.88h-17.2v-51.6c0,-1.89469 -1.54531,-3.44 -3.44,-3.44h-103.2c-0.1075,0 -0.215,0 -0.3225,0c-0.1075,0 -0.215,0 -0.3225,0zM37.84,13.76h96.32v48.16h-29.24c-6.61125,0 -12.04,5.42875 -12.04,12.04c0,6.61125 5.42875,12.04 12.04,12.04h8.6c1.94844,0 3.44,1.49156 3.44,3.44c0,1.94844 -1.49156,3.44 -3.44,3.44h-55.04c-1.94844,0 -3.44,-1.49156 -3.44,-3.44c0,-1.94844 1.49156,-3.44 3.44,-3.44h8.6c6.61125,0 12.04,-5.42875 12.04,-12.04c0,-6.61125 -5.42875,-12.04 -12.04,-12.04h-29.025c-0.06719,0 -0.14781,0 -0.215,0zM54.395,27.52c-1.89469,0.17469 -3.29219,1.86781 -3.1175,3.7625c0.17469,1.89469 1.86781,3.29219 3.7625,3.1175h61.92c1.23625,0.01344 2.39188,-0.63156 3.02344,-1.70656c0.61813,-1.075 0.61813,-2.39187 0,-3.46687c-0.63156,-1.075 -1.78719,-1.72 -3.02344,-1.70656h-61.92c-0.1075,0 -0.215,0 -0.3225,0c-0.1075,0 -0.215,0 -0.3225,0zM54.395,41.28c-1.89469,0.17469 -3.29219,1.86781 -3.1175,3.7625c0.17469,1.89469 1.86781,3.29219 3.7625,3.1175h44.72c1.23625,0.01344 2.39188,-0.63156 3.02344,-1.70656c0.61813,-1.075 0.61813,-2.39187 0,-3.46687c-0.63156,-1.075 -1.78719,-1.72 -3.02344,-1.70656h-44.72c-0.1075,0 -0.215,0 -0.3225,0c-0.1075,0 -0.215,0 -0.3225,0zM20.64,68.8h46.44c2.88906,0 5.16,2.27094 5.16,5.16c0,2.88906 -2.27094,5.16 -5.16,5.16h-8.6c-5.65719,0 -10.32,4.66281 -10.32,10.32c0,5.65719 4.66281,10.32 10.32,10.32h55.04c5.65719,0 10.32,-4.66281 10.32,-10.32c0,-5.65719 -4.66281,-10.32 -10.32,-10.32h-8.6c-2.88906,0 -5.16,-2.27094 -5.16,-5.16c0,-2.88906 2.27094,-5.16 5.16,-5.16h46.44v79.12c0,5.73781 -4.58219,10.32 -10.32,10.32h-110.08c-5.73781,0 -10.32,-4.58219 -10.32,-10.32zM6.88,75.68h6.88v6.88h-6.88zM158.24,75.68h6.88v6.88h-6.88zM37.84,113.52c-1.89469,0 -3.44,1.54531 -3.44,3.44c0,1.89469 1.54531,3.44 3.44,3.44c1.89469,0 3.44,-1.54531 3.44,-3.44c0,-1.89469 -1.54531,-3.44 -3.44,-3.44zM51.6,113.52c-1.89469,0 -3.44,1.54531 -3.44,3.44c0,1.89469 1.54531,3.44 3.44,3.44c1.89469,0 3.44,-1.54531 3.44,-3.44c0,-1.89469 -1.54531,-3.44 -3.44,-3.44zM65.36,113.52c-1.89469,0 -3.44,1.54531 -3.44,3.44c0,1.89469 1.54531,3.44 3.44,3.44c1.89469,0 3.44,-1.54531 3.44,-3.44c0,-1.89469 -1.54531,-3.44 -3.44,-3.44zM79.12,113.52c-1.89469,0 -3.44,1.54531 -3.44,3.44c0,1.89469 1.54531,3.44 3.44,3.44c1.89469,0 3.44,-1.54531 3.44,-3.44c0,-1.89469 -1.54531,-3.44 -3.44,-3.44zM92.88,113.52c-1.89469,0 -3.44,1.54531 -3.44,3.44c0,1.89469 1.54531,3.44 3.44,3.44c1.89469,0 3.44,-1.54531 3.44,-3.44c0,-1.89469 -1.54531,-3.44 -3.44,-3.44zM106.64,113.52c-1.89469,0 -3.44,1.54531 -3.44,3.44c0,1.89469 1.54531,3.44 3.44,3.44c1.89469,0 3.44,-1.54531 3.44,-3.44c0,-1.89469 -1.54531,-3.44 -3.44,-3.44zM120.4,113.52c-1.89469,0 -3.44,1.54531 -3.44,3.44c0,1.89469 1.54531,3.44 3.44,3.44c1.89469,0 3.44,-1.54531 3.44,-3.44c0,-1.89469 -1.54531,-3.44 -3.44,-3.44zM134.16,113.52c-1.89469,0 -3.44,1.54531 -3.44,3.44c0,1.89469 1.54531,3.44 3.44,3.44c1.89469,0 3.44,-1.54531 3.44,-3.44c0,-1.89469 -1.54531,-3.44 -3.44,-3.44zM44.72,127.28c-1.89469,0 -3.44,1.54531 -3.44,3.44c0,1.89469 1.54531,3.44 3.44,3.44c1.89469,0 3.44,-1.54531 3.44,-3.44c0,-1.89469 -1.54531,-3.44 -3.44,-3.44zM58.48,127.28c-1.89469,0 -3.44,1.54531 -3.44,3.44c0,1.89469 1.54531,3.44 3.44,3.44c1.89469,0 3.44,-1.54531 3.44,-3.44c0,-1.89469 -1.54531,-3.44 -3.44,-3.44zM72.24,127.28c-1.89469,0 -3.44,1.54531 -3.44,3.44c0,1.89469 1.54531,3.44 3.44,3.44c1.89469,0 3.44,-1.54531 3.44,-3.44c0,-1.89469 -1.54531,-3.44 -3.44,-3.44zM86,127.28c-1.89469,0 -3.44,1.54531 -3.44,3.44c0,1.89469 1.54531,3.44 3.44,3.44c1.89469,0 3.44,-1.54531 3.44,-3.44c0,-1.89469 -1.54531,-3.44 -3.44,-3.44zM99.76,127.28c-1.89469,0 -3.44,1.54531 -3.44,3.44c0,1.89469 1.54531,3.44 3.44,3.44c1.89469,0 3.44,-1.54531 3.44,-3.44c0,-1.89469 -1.54531,-3.44 -3.44,-3.44zM113.52,127.28c-1.89469,0 -3.44,1.54531 -3.44,3.44c0,1.89469 1.54531,3.44 3.44,3.44c1.89469,0 3.44,-1.54531 3.44,-3.44c0,-1.89469 -1.54531,-3.44 -3.44,-3.44zM127.28,127.28c-1.89469,0 -3.44,1.54531 -3.44,3.44c0,1.89469 1.54531,3.44 3.44,3.44c1.89469,0 3.44,-1.54531 3.44,-3.44c0,-1.89469 -1.54531,-3.44 -3.44,-3.44zM55.04,141.04c-1.89469,0 -3.44,1.54531 -3.44,3.44c0,1.89469 1.54531,3.44 3.44,3.44h61.92c1.89469,0 3.44,-1.54531 3.44,-3.44c0,-1.89469 -1.54531,-3.44 -3.44,-3.44z"></path></g></g></svg>