<svg class="hobbie_cell__img" xmlns="http://www.w3.org/2000/svg" x="0px" y="0px"
                            width="50" height="50"
                            viewBox="0 0 172 172"
                            style=" fill:#000000;"><g fill="none" fill-rule="nonzero" stroke="none" stroke-width="1" stroke-linecap="butt" stroke-linejoin="miter" stroke-miterlimit="10" stroke-dasharray="" stroke-dashoffset="0" font-family="none" font-weight="none" font-size="none" text-anchor="none" style="mix-blend-mode: normal"><path d="M0,172v-172h172v172z" fill="none"></path><g fill="#ead017"><path d="M24.82198,32.25c-4.70527,-0.01577 -9.01025,2.64489 -11.10037,6.86048c-0.44594,0.86064 -0.39387,1.89474 0.13626,2.70623c0.53013,0.8115 1.45617,1.27464 2.42346,1.21206c0.96729,-0.06258 1.82593,-0.6412 2.24707,-1.51425c1.1851,-2.39004 3.62587,-3.89847 6.29358,-3.88952h2.05302c1.48427,0 2.6875,-1.20323 2.6875,-2.6875c0,-1.48427 -1.20323,-2.6875 -2.6875,-2.6875zM145.125,32.25c-1.48427,0 -2.6875,1.20323 -2.6875,2.6875c0,1.48427 1.20323,2.6875 2.6875,2.6875h2.05302c2.6677,-0.00895 5.10848,1.49949 6.29358,3.88952c0.42115,0.87302 1.27979,1.45162 2.24706,1.51419c0.96728,0.06258 1.8933,-0.40056 2.42343,-1.21204c0.53013,-0.81148 0.58221,-1.84556 0.1363,-2.7062c-2.09012,-4.21559 -6.3951,-6.87624 -11.10037,-6.86048zM30.19698,40.3125c-4.70527,-0.01577 -9.01025,2.64489 -11.10037,6.86048c-0.44594,0.86064 -0.39387,1.89474 0.13626,2.70623c0.53013,0.8115 1.45617,1.27464 2.42346,1.21206c0.96729,-0.06258 1.82593,-0.6412 2.24707,-1.51425c1.1851,-2.39004 3.62587,-3.89847 6.29358,-3.88952h2.05302c1.48427,0 2.6875,-1.20323 2.6875,-2.6875c0,-1.48427 -1.20323,-2.6875 -2.6875,-2.6875zM139.75,40.3125c-1.48427,0 -2.6875,1.20323 -2.6875,2.6875c0,1.48427 1.20323,2.6875 2.6875,2.6875h2.05302c2.6677,-0.00895 5.10848,1.49949 6.29358,3.88952c0.42115,0.87302 1.27979,1.45162 2.24706,1.51419c0.96728,0.06258 1.8933,-0.40056 2.42343,-1.21204c0.53013,-0.81148 0.58221,-1.84556 0.1363,-2.7062c-2.09012,-4.21559 -6.3951,-6.87624 -11.10037,-6.86048zM37.78247,51.0625c-4.33853,0.00431 -8.40911,2.09908 -10.93437,5.62695l-8.21997,11.50783c-1.63257,2.27671 -2.50821,5.00899 -2.50313,7.81055v27.99107l-10.29858,15.44788c-0.71044,1.06591 -0.56985,2.48508 0.33594,3.39087l18.8125,18.8125c0.50392,0.50403 1.18742,0.78725 1.90015,0.78735c0.07346,0 0.14742,-0.00314 0.22177,-0.00918c0.78722,-0.06515 1.50592,-0.47334 1.9651,-1.11608l6.87491,-9.62474h11.14302c6.74886,-0.00859 12.97843,-3.62372 16.33431,-9.47908l4.75233,-8.31773c0.35975,-0.62739 1.02733,-1.01473 1.75055,-1.01569h32.16602c0.72325,0.00082 1.3909,0.38819 1.75055,1.01569l4.75233,8.31773c3.35587,5.85536 9.58545,9.47049 16.33431,9.47908h11.14302l6.87491,9.62474c0.45918,0.64274 1.17788,1.05092 1.9651,1.11608c0.07436,0.00605 0.14831,0.00918 0.22177,0.00918c0.71273,-0.00011 1.39623,-0.28332 1.90015,-0.78735l18.8125,-18.8125c0.90578,-0.90579 1.04638,-2.32496 0.33594,-3.39087l-10.29858,-15.44788v-27.99107c0.00509,-2.80155 -0.87056,-5.53383 -2.50313,-7.81055l-8.21997,-11.50783c-2.52526,-3.52787 -6.59585,-5.62265 -10.93437,-5.62695h-12.60815c-2.37671,-0.00059 -4.65039,0.97032 -6.29358,2.6875h-7.81579c-2.96707,0.00352 -5.37148,2.40793 -5.375,5.375v2.6875h-6.12561l-2.07468,-6.22469c-0.36576,-1.09753 -1.39284,-1.83784 -2.54971,-1.83781h-10.75c-1.15687,-0.00003 -2.18395,0.74028 -2.54971,1.83781l-2.07468,6.22469h-6.12561v-2.6875c-0.00352,-2.96707 -2.40793,-5.37148 -5.375,-5.375h-7.81579c-1.64319,-1.71718 -3.91687,-2.68809 -6.29358,-2.6875zM37.78247,56.4375h12.60815c1.85449,0.00204 3.35734,1.50489 3.35938,3.35938v2.01563h-10.75c-0.84591,-0.0001 -1.6425,0.39807 -2.15013,1.07474l-8.0625,10.75c-0.3489,0.46528 -0.53746,1.03119 -0.53737,1.61276v21.5c-0.00014,1.03334 0.5922,1.97525 1.52361,2.42277c0.93141,0.44751 2.03692,0.32137 2.84357,-0.32447l11.35495,-9.08409c0.8719,-0.69572 1.95392,-1.07528 3.06937,-1.07671h0.48226c1.98745,0.00009 3.77917,1.19732 4.53977,3.03347c0.7606,1.83615 0.3403,3.94967 -1.06492,5.35513l-5.83626,5.83626c-0.37525,0.3752 -0.63115,0.85299 -0.73552,1.37328l-1.02094,5.10336c-0.84621,4.20507 -3.87559,7.63709 -7.94308,8.99879c-0.53896,0.17943 -1.00713,0.52516 -1.33719,0.98747l-11.59378,16.23129l-15.01089,-15.01155l9.52763,-14.29178c0.29432,-0.44145 0.45139,-0.96015 0.45142,-1.49072v-28.80467c-0.00312,-1.68106 0.52227,-3.32058 1.50188,-4.68672l8.21931,-11.50717c1.51534,-2.11689 3.95792,-3.37384 6.56128,-3.37643zM121.60938,56.4375h12.60815c2.60336,0.00259 5.04594,1.25954 6.56128,3.37643l8.21932,11.50783c0.97958,1.36591 1.50497,3.00521 1.50188,4.68607v28.80467c0.00002,0.53057 0.15709,1.04927 0.45142,1.49072l9.52763,14.29178l-15.0109,15.01155l-11.59378,-16.23129c-0.33006,-0.46231 -0.79823,-0.80804 -1.33719,-0.98747c-4.06749,-1.3617 -7.09687,-4.79372 -7.94308,-8.99879l-1.02094,-5.10336c-0.10437,-0.52028 -0.36027,-0.99808 -0.73552,-1.37328l-5.83626,-5.83626c-1.40522,-1.40546 -1.82552,-3.51898 -1.06492,-5.35513c0.7606,-1.83615 2.55232,-3.03338 4.53977,-3.03347h0.48226c1.11568,0.00128 2.19795,0.38085 3.07002,1.07671l11.35429,9.08409c0.80665,0.64584 1.91216,0.77199 2.84357,0.32447c0.93141,-0.44751 1.52375,-1.38942 1.52361,-2.42277v-21.5c0.00009,-0.58157 -0.18846,-1.14748 -0.53737,-1.61276l-8.0625,-10.75c-0.50763,-0.67667 -1.30422,-1.07484 -2.15013,-1.07474h-10.75v-2.01562c0.00204,-1.85449 1.50489,-3.35734 3.35938,-3.35937zM59.09679,59.125h5.40321v2.6875h-5.375v-2.01562c0,-0.22642 -0.01142,-0.44982 -0.02821,-0.67187zM82.56189,59.125h6.87622l0.89561,2.6875h-8.66745zM107.5,59.125h5.40321c-0.0168,0.22205 -0.02821,0.44545 -0.02821,0.67188v2.01563h-5.375zM44.34375,67.1875h83.3125l6.71875,8.95877v15.01221l-6.98776,-5.59152c-1.27381,-1.01303 -2.76914,-1.71045 -4.36391,-2.03531c-1.13689,-2.20449 -3.63507,-3.34426 -6.04518,-2.75805c-2.41012,0.58621 -4.10574,2.74602 -4.10314,5.2264c0.00108,0.21143 0.01445,0.42262 0.04002,0.63251c-1.41721,1.53324 -2.33282,3.46243 -2.62451,5.52985c-2.53459,-1.54532 -5.84201,-0.74336 -7.38733,1.79123c-1.54532,2.53459 -0.74336,5.84201 1.79123,7.38734c2.53459,1.54532 5.84201,0.74337 7.38734,-1.79122c0.33547,0.47267 0.70989,0.91645 1.11935,1.32669l5.26083,5.26083l0.86084,4.30617c1.16355,5.77865 5.17787,10.5731 10.66208,12.73413l2.24002,3.13498h-7.30467c-4.82039,-0.00606 -9.26987,-2.58827 -11.66661,-6.77059l-4.75365,-8.31839c-1.31861,-2.29998 -3.76577,-3.71999 -6.41693,-3.72352h-32.16602c-2.65102,0.00404 -5.09785,1.42425 -6.41628,3.72418l-4.75299,8.31773c-2.39703,4.18267 -6.84709,6.76492 -11.66792,6.77059h-7.30467l2.23871,-3.13498c5.48421,-2.16103 9.49853,-6.95548 10.66208,-12.73413l0.86084,-4.30617l5.26149,-5.26083c0.44258,-0.44247 0.84423,-0.92406 1.20006,-1.43889h7.18919c1.48427,0 2.6875,-1.20323 2.6875,-2.6875v-2.6875h2.6875c1.48427,0 2.6875,-1.20323 2.6875,-2.6875v-10.75c0,-1.48427 -1.20323,-2.6875 -2.6875,-2.6875h-2.6875v-2.6875c0,-1.48427 -1.20323,-2.6875 -2.6875,-2.6875h-10.75c-1.48427,0 -2.6875,1.20323 -2.6875,2.6875v2.6875h-2.6875c-1.48427,0 -2.6875,1.20323 -2.6875,2.6875v3.04443c-1.37084,0.36702 -2.65119,1.013 -3.76092,1.89752l-6.98908,5.59152v-15.01221zM107.5,69.875c-2.96853,0 -5.375,2.40647 -5.375,5.375c0,2.96853 2.40647,5.375 5.375,5.375c2.96853,0 5.375,-2.40647 5.375,-5.375c0,-2.96853 -2.40647,-5.375 -5.375,-5.375zM59.125,77.9375h5.375v2.6875c0,1.48427 1.20323,2.6875 2.6875,2.6875h2.6875v5.375h-2.6875c-1.48427,0 -2.6875,1.20323 -2.6875,2.6875v2.6875h-2.69865c0.00672,-0.15319 0.01115,-0.30673 0.01115,-0.46126c-0.00634,-4.8222 -3.35587,-8.99521 -8.0625,-10.04466v-0.24408h2.6875c1.48427,0 2.6875,-1.20323 2.6875,-2.6875zM96.75,80.625c-2.96853,0 -5.375,2.40647 -5.375,5.375c0,2.96853 2.40647,5.375 5.375,5.375c2.96853,0 5.375,-2.40647 5.375,-5.375c0,-2.96853 -2.40647,-5.375 -5.375,-5.375zM75.25,96.75c-1.48427,0 -2.6875,1.20323 -2.6875,2.6875c0,1.48427 1.20323,2.6875 2.6875,2.6875h5.375c1.48427,0 2.6875,-1.20323 2.6875,-2.6875c0,-1.48427 -1.20323,-2.6875 -2.6875,-2.6875zM91.375,96.75c-1.48427,0 -2.6875,1.20323 -2.6875,2.6875c0,1.48427 1.20323,2.6875 2.6875,2.6875h5.375c1.48427,0 2.6875,-1.20323 2.6875,-2.6875c0,-1.48427 -1.20323,-2.6875 -2.6875,-2.6875z"></path></g></g></svg>