<svg class="hobbie_cell__img" xmlns="http://www.w3.org/2000/svg" x="0px" y="0px"
                            width="50" height="50"
                            viewBox="0 0 172 172"
                            style=" fill:#000000;"><g fill="none" fill-rule="nonzero" stroke="none" stroke-width="1" stroke-linecap="butt" stroke-linejoin="miter" stroke-miterlimit="10" stroke-dasharray="" stroke-dashoffset="0" font-family="none" font-weight="none" font-size="none" text-anchor="none" style="mix-blend-mode: normal"><path d="M0,172v-172h172v172z" fill="none"></path><g fill="#ead017"><path d="M77.89551,0c-0.08778,0.00259 -0.17537,0.0096 -0.26245,0.021c-0.81295,0.09262 -1.53943,0.55053 -1.97363,1.24402l-26.08765,41.73499h-6.57178c-0.92274,0.00026 -1.78082,0.47389 -2.27283,1.25452l-10.95471,17.34277l-5.86841,-11.73682c-0.45533,-0.91052 -1.38603,-1.48561 -2.40405,-1.48547h-8.0625c-1.01424,0.00383 -1.93993,0.57833 -2.39355,1.48547l-10.75,21.5l4.81335,2.40405l9.98889,-20.01453h4.74512l6.57703,13.1593l-7.75806,12.28272l4.54565,2.86597l11.60559,-18.37158l11.88904,-4.75037c0.61207,-0.245 1.11272,-0.70642 1.40674,-1.29651l5.1283,-10.28809l21.90942,-19.47388l11.64233,11.64758c1.04949,1.04926 2.7508,1.04926 3.80029,0l6.16235,-6.16235l6.16235,6.16235c0.90579,0.90578 2.32496,1.04638 3.39087,0.33594l5.3855,-3.59033l6.98645,10.87073c0.03506,0.05023 0.07182,0.09925 0.11023,0.14697c0.02373,0.0338 0.04823,0.06706 0.07348,0.09973l7.98902,10.65027c0.46776,0.62516 1.18428,1.01598 1.96314,1.0708c0.77718,0.06413 1.54265,-0.22052 2.08911,-0.77686l1.20203,-1.20203l10.36157,6.2201l0.5459,1.14954h-5.94714c-0.8967,0.00178 -1.73345,0.45066 -2.23083,1.19678l-8.96008,13.4375l4.47217,2.98145l3.07593,-4.61389c1.22441,-0.35465 4.82646,-0.92035 10.2146,2.67175c6.45437,4.30425 15.75959,5.42773 20.30322,5.72144l2.91846,6.57178l4.91308,-2.18359l-10.75,-24.1875c-0.43154,-0.97064 -1.3943,-1.59602 -2.45654,-1.5957h-9.62671l-9.45349,-19.96204c-0.44293,-0.93604 -1.38426,-1.53432 -2.4198,-1.53796h-14.65527l-13.02808,-20.27173l-4.52466,2.91321l3.92627,6.10986l-3.62707,2.41455l-6.50354,-6.50354c-1.04949,-1.04926 -2.7508,-1.04926 -3.80029,0l-6.16235,6.16235l-11.53735,-11.53735c-1.00696,-1.00459 -2.62229,-1.05061 -3.68481,-0.10498l-10.21985,9.08606l15.18018,-24.28198l8.36169,8.3512c0.90579,0.90578 2.32496,1.04638 3.39087,0.33594l5.78967,-3.84753l5.43274,8.44568l4.53516,-2.91321l-6.91296,-10.75c-0.38981,-0.60943 -1.00886,-1.03597 -1.71717,-1.18316c-0.7083,-0.14719 -1.44604,-0.00261 -2.04638,0.40105l-6.23059,4.15198l-9.19104,-9.19104c-0.50949,-0.52145 -1.21336,-0.80681 -1.94214,-0.78735zM44.48022,48.375h2.23608l-2.97619,5.94714l-4.0365,1.61145zM126.323,48.375h9.03882l2.93945,6.19385l-5.22803,-3.13367c-1.05696,-0.63732 -2.41214,-0.4728 -3.28589,0.39892l-0.49866,0.49866zM138.50073,69.875h18.31909l4.60864,10.37732c-4.35023,-0.49772 -10.50027,-1.67608 -14.81799,-4.55615c-3.68656,-2.45985 -6.92418,-3.40586 -9.53748,-3.67957zM122.2865,84.50928l-3.55359,5.32776c-16.16431,2.63838 -29.32027,8.96345 -30.81702,9.7002c-1.32552,-0.0434 -2.60877,-0.05198 -3.90002,-0.05774c-2.03573,-0.98808 -22.46713,-10.79199 -43.70337,-10.79199c-3.70026,0.00506 -7.3969,0.23117 -11.07019,0.67712l0.64038,5.33301c3.46078,-0.42 6.94364,-0.6321 10.42981,-0.63513c11.58838,0 23.17368,3.26598 31.24219,6.15711c-0.71557,0.10174 -1.49084,0.1688 -2.16785,0.29395c-6.57677,1.45828 -13.02311,3.45258 -19.27441,5.96289l1.8949,5.02856c5.95379,-2.39779 12.09261,-4.30772 18.35584,-5.71094c12.52644,-2.31125 33.36455,-0.10796 47.39868,2.48279c17.01112,3.07382 34.26406,4.61272 51.55066,4.59815v-5.375c-16.9592,0.01638 -33.88551,-1.49267 -50.57434,-4.50891c-5.65152,-1.04328 -12.09817,-1.99111 -18.64978,-2.64551c8.07068,-2.92051 19.82272,-6.28308 31.59912,-6.28308c12.55169,0.04593 24.9568,2.70034 36.42822,7.7948l2.3988,-4.81336c-12.20465,-5.5003 -25.44022,-8.33995 -38.82703,-8.3302c-1.98709,0 -3.96208,0.1143 -5.92615,0.27295l0.99732,-1.49597zM15.26941,84.56177l-5.87891,9.30127c-2.68379,0.92496 -5.32181,1.97771 -7.90503,3.15466l2.3988,4.8396c6.62486,-3.00556 13.6066,-5.1523 20.77563,-6.38806l-0.95007,-5.28577c-2.1899,0.38734 -4.36452,0.85658 -6.51929,1.40674l2.62451,-4.15198zM2.6875,104.8125v5.375c19.59187,0 28.53915,3.11914 35.4729,12.36145c3.17621,3.97262 7.0925,7.29175 11.5321,9.77368l2.74524,-4.61389c-3.83213,-2.12745 -7.21827,-4.9736 -9.97315,-8.38269c-0.80946,-1.07928 -1.65648,-2.0566 -2.51953,-2.9867c2.32338,-0.97901 5.46953,-2.28161 8.97058,-3.64807l-1.95264,-5.00757c-5.62475,2.19498 -9.55035,3.87845 -11.41663,4.68738c-8.26455,-6.14164 -18.81079,-7.55859 -32.85889,-7.55859zM116.16614,120.9375c-17.29239,0.0778 -34.27169,4.6196 -49.29358,13.18555c-3.16954,-1.02034 -6.268,-2.24955 -9.27502,-3.67957l-2.32007,4.85535c1.82615,0.84726 3.6839,1.62468 5.56921,2.33057c-14.63962,9.06309 -26.29221,16.35679 -34.1344,21.35303l2.89221,4.53516c8.28825,-5.29706 20.59276,-12.98562 36.56995,-22.8595c15.00627,-9.33625 32.31822,-14.30408 49.9917,-14.34558h42.39636v-5.375zM163.9375,120.9375v5.375h5.375v-5.375zM22.51306,161.68042c-2.95362,1.6659 -5.74742,3.60048 -8.34595,5.77918l3.86328,3.73206c0.1935,-0.16394 1.30319,-1.05182 7.40112,-4.99707z"></path></g></g></svg>