<svg class="hobbie_cell__img" xmlns="http://www.w3.org/2000/svg" x="0px" y="0px"
                            width="50" height="50"
                            viewBox="0 0 172 172"
                            style=" fill:#000000;"><g fill="none" fill-rule="nonzero" stroke="none" stroke-width="1" stroke-linecap="butt" stroke-linejoin="miter" stroke-miterlimit="10" stroke-dasharray="" stroke-dashoffset="0" font-family="none" font-weight="none" font-size="none" text-anchor="none" style="mix-blend-mode: normal"><path d="M0,172v-172h172v172z" fill="none"></path><g fill="#ead017"><path d="M146.2,19.16524l-91.57656,7.78535c-7.76855,0.66348 -13.77344,7.20586 -13.77344,14.99961v68.35488c-1.41934,-0.26875 -2.80508,-0.65508 -4.3,-0.65508c-13.03437,0 -23.65,10.61563 -23.65,23.65c0,13.03438 10.61563,23.65 23.65,23.65c13.03438,0 23.65,-10.61562 23.65,-23.65v-72.40293l66.65,-5.67734v46.48535c-1.41934,-0.26875 -2.80508,-0.65508 -4.3,-0.65508c-13.03437,0 -23.65,10.61562 -23.65,23.65c0,13.03438 10.61563,23.65 23.65,23.65c13.03437,0 23.65,-10.61562 23.65,-23.65zM141.9,23.84316v100.85684c0,10.71641 -8.63359,19.35 -19.35,19.35c-10.71641,0 -19.35,-8.63359 -19.35,-19.35c0,-10.71641 8.63359,-19.35 19.35,-19.35c2.02402,0 3.97246,0.31914 5.81172,0.89024l2.78828,0.87344v-56.57187l-75.25,6.39961v76.35859c0,10.71641 -8.63359,19.35 -19.35,19.35c-10.71641,0 -19.35,-8.63359 -19.35,-19.35c0,-10.71641 8.63359,-19.35 19.35,-19.35c2.02402,0 3.97246,0.31914 5.81172,0.89024l2.78828,0.87344v-73.76348c0,-5.60176 4.25801,-10.2377 9.84297,-10.70801zM129,34.4c-1.18418,0 -2.15,0.96582 -2.15,2.15c0,1.18418 0.96582,2.15 2.15,2.15c1.18418,0 2.15,-0.96582 2.15,-2.15c0,-1.18418 -0.96582,-2.15 -2.15,-2.15zM58.05,40.85c-1.18418,0 -2.15,0.96582 -2.15,2.15c0,1.18418 0.96582,2.15 2.15,2.15c1.18418,0 2.15,-0.96582 2.15,-2.15c0,-1.18418 -0.96582,-2.15 -2.15,-2.15zM129,43c-1.18418,0 -2.15,0.96582 -2.15,2.15c0,1.18418 0.96582,2.15 2.15,2.15c1.18418,0 2.15,-0.96582 2.15,-2.15c0,-1.18418 -0.96582,-2.15 -2.15,-2.15zM58.05,49.45c-1.18418,0 -2.15,0.96582 -2.15,2.15c0,1.18418 0.96582,2.15 2.15,2.15c1.18418,0 2.15,-0.96582 2.15,-2.15c0,-1.18418 -0.96582,-2.15 -2.15,-2.15zM109.65,122.55c-1.18418,0 -2.15,0.96582 -2.15,2.15c0,1.18418 0.96582,2.15 2.15,2.15c1.18418,0 2.15,-0.96582 2.15,-2.15c0,-1.18418 -0.96582,-2.15 -2.15,-2.15zM135.45,122.55c-1.18418,0 -2.15,0.96582 -2.15,2.15c0,1.18418 0.96582,2.15 2.15,2.15c1.18418,0 2.15,-0.96582 2.15,-2.15c0,-1.18418 -0.96582,-2.15 -2.15,-2.15zM23.65,131.15c-1.18418,0 -2.15,0.96582 -2.15,2.15c0,1.18418 0.96582,2.15 2.15,2.15c1.18418,0 2.15,-0.96582 2.15,-2.15c0,-1.18418 -0.96582,-2.15 -2.15,-2.15zM49.45,131.15c-1.18418,0 -2.15,0.96582 -2.15,2.15c0,1.18418 0.96582,2.15 2.15,2.15c1.18418,0 2.15,-0.96582 2.15,-2.15c0,-1.18418 -0.96582,-2.15 -2.15,-2.15zM131.6959,131.6707c-0.57949,-0.0084 -1.13379,0.21836 -1.54531,0.62988c-0.83984,0.83984 -0.83984,2.20039 0,3.04024c0.83984,0.83984 2.20039,0.83984 3.04024,0c0.83984,-0.83984 0.83984,-2.20039 0,-3.04024c-0.39473,-0.39472 -0.93223,-0.62148 -1.49492,-0.62988zM113.45449,131.6791c-0.57949,-0.0168 -1.14219,0.20996 -1.55371,0.62148c-0.83145,0.83984 -0.83145,2.20879 0,3.04863c0.83984,0.83145 2.20879,0.83145 3.04863,0c0.83145,-0.83984 0.83145,-2.20879 0,-3.04863c-0.40313,-0.39472 -0.93223,-0.61309 -1.49492,-0.62148zM122.55,135.45c-1.18418,0 -2.15,0.96582 -2.15,2.15c0,1.18418 0.96582,2.15 2.15,2.15c1.18418,0 2.15,-0.96582 2.15,-2.15c0,-1.18418 -0.96582,-2.15 -2.15,-2.15zM27.45449,140.2707c-0.57949,-0.0084 -1.13379,0.21836 -1.54531,0.62988c-0.83984,0.83984 -0.83984,2.20039 0,3.04024c0.83984,0.83984 2.20039,0.83984 3.04024,0c0.83984,-0.83984 0.83984,-2.20039 0,-3.04024c-0.39473,-0.39472 -0.93223,-0.62148 -1.49492,-0.62988zM45.7043,140.2707c-0.57949,-0.0084 -1.14219,0.21836 -1.55371,0.62988c-0.83984,0.83984 -0.83984,2.20039 0,3.04024c0.83984,0.83984 2.20039,0.83984 3.04024,0c0.83984,-0.83984 0.83984,-2.20039 0,-3.04024c-0.39473,-0.39472 -0.92383,-0.62148 -1.48652,-0.62988zM36.55,144.05c-1.18418,0 -2.15,0.96582 -2.15,2.15c0,1.18418 0.96582,2.15 2.15,2.15c1.18418,0 2.15,-0.96582 2.15,-2.15c0,-1.18418 -0.96582,-2.15 -2.15,-2.15z"></path></g></g></svg>