<svg class="hobbie_cell__img" xmlns="http://www.w3.org/2000/svg" x="0px" y="0px"
                            width="50" height="50"
                            viewBox="0 0 172 172"
                            style=" fill:#000000;"><g fill="none" fill-rule="nonzero" stroke="none" stroke-width="1" stroke-linecap="butt" stroke-linejoin="miter" stroke-miterlimit="10" stroke-dasharray="" stroke-dashoffset="0" font-family="none" font-weight="none" font-size="none" text-anchor="none" style="mix-blend-mode: normal"><path d="M0,172v-172h172v172z" fill="none"></path><g fill="#ead017"><path d="M154.98267,0c-7.59627,0 -14.77564,3.55137 -18.36108,8.55066c-2.01651,-2.03089 -4.75962,-3.17385 -7.62158,-3.17566h-2.6875v5.375h2.6875c2.96853,0 5.375,2.40647 5.375,5.375h-4.31995c-18.36638,0 -33.30505,10.85213 -33.30505,24.1875c0,17.67161 6.20839,32.69287 15.53186,40.3125h-10.15686h-77.9375c-10.38986,0 -18.8125,-8.42264 -18.8125,-18.8125c0,-10.38986 8.42264,-18.8125 18.8125,-18.8125h69.875v-5.375h-69.875c-13.35839,0 -24.1875,10.82911 -24.1875,24.1875c0,13.35839 10.82911,24.1875 24.1875,24.1875h6.34082c-5.68368,4.59049 -8.98792,11.50405 -8.98995,18.80999c-0.00204,7.30594 3.29834,14.22135 8.97946,18.81501h-6.33032c-13.35839,0 -24.1875,10.82911 -24.1875,24.1875c0,13.35839 10.82911,24.1875 24.1875,24.1875h118.25c1.48427,0 2.6875,-1.20323 2.6875,-2.6875v-8.0625c0,-1.48427 -1.20323,-2.6875 -2.6875,-2.6875h-2.6875v-18.8125h-5.375v18.8125h-110.1875c-5.93706,0 -10.75,-4.81294 -10.75,-10.75c0,-5.93706 4.81294,-10.75 10.75,-10.75h118.25c1.48427,0 2.6875,-1.20323 2.6875,-2.6875v-7.11768l0.58789,0.73486c0.5104,0.63749 1.28297,1.00832 2.09961,1.00781c0.30205,-0.00167 0.60176,-0.0531 0.88708,-0.15222c1.07774,-0.37686 1.79974,-1.39354 1.80042,-2.53528v-24.1875c0,-1.48427 -1.20323,-2.6875 -2.6875,-2.6875h-21.5c-1.48427,0 -2.6875,1.20323 -2.6875,2.6875v24.1875c0.00134,1.14107 0.72309,2.1569 1.80018,2.53365c1.07709,0.37674 2.27465,0.03226 2.98693,-0.85921l8.65039,-10.81299l5.15979,6.45105h-7.84729v5.375h5.375v2.6875h-115.5625c-8.90559,0 -16.125,7.21941 -16.125,16.125c0,8.90559 7.21941,16.125 16.125,16.125h115.5625v2.6875h-115.5625c-10.38986,0 -18.8125,-8.42264 -18.8125,-18.8125c0,-10.38986 8.42264,-18.8125 18.8125,-18.8125h21.5h75.25v-5.375h-75.25c-10.38986,0 -18.8125,-8.42264 -18.8125,-18.8125c0,-10.38986 8.42264,-18.8125 18.8125,-18.8125h56.4375h59.125v2.6875h-115.5625c-8.90559,0 -16.125,7.21941 -16.125,16.125c0,8.90559 7.21941,16.125 16.125,16.125h75.25v-5.375h-75.25c-5.93706,0 -10.75,-4.81294 -10.75,-10.75c0,-5.93706 4.81294,-10.75 10.75,-10.75h110.1875v21.5h-2.6875v5.375h8.0625v2.6875h-8.0625v5.375h10.75c1.48427,0 2.6875,-1.20323 2.6875,-2.6875v-8.0625c0,-1.48427 -1.20323,-2.6875 -2.6875,-2.6875h-2.6875v-21.5h2.6875c1.48427,0 2.6875,-1.20323 2.6875,-2.6875v-8.0625c0,-1.48427 -1.20323,-2.6875 -2.6875,-2.6875h-7.37488c9.26263,-7.62717 15.43738,-22.64644 15.43738,-40.3125c0,-8.91167 -6.6539,-16.69506 -16.50818,-20.89111c13.6746,-4.31637 16.30026,-13.95383 16.42944,-14.47681c0.31213,-1.26071 -0.32197,-2.56424 -1.50647,-3.09692c-3.91031,-1.76031 -13.55088,-1.84766 -15.43213,-1.84766zM154.98267,5.375c3.53942,-0.00687 7.07512,0.2299 10.58203,0.70862c-2.24944,3.64694 -8.52861,10.04138 -24.92236,10.04138h-0.89233v-1.87915c1.10187,-4.74612 8.13229,-8.87085 15.23267,-8.87085zM130.05505,21.5h8.81836c15.30263,0 27.75159,8.43875 27.75159,18.8125c0,22.22831 -10.83919,40.3125 -24.16651,40.3125c-0.96745,0.00097 -1.9218,-0.22369 -2.78723,-0.65613c-1.65972,-0.7659 -3.46842,-1.15488 -5.29626,-1.13904c-1.81538,-0.02568 -3.61204,0.36958 -5.24902,1.15479c-0.82505,0.4281 -1.74228,0.64795 -2.67175,0.64038c-13.41331,0 -24.32922,-18.08419 -24.32922,-40.3125c0,-10.37375 12.52799,-18.8125 27.93005,-18.8125zM24.1875,45.6875c-8.90559,0 -16.125,7.21941 -16.125,16.125c0,8.90559 7.21941,16.125 16.125,16.125h77.9375v-5.375h-77.9375c-5.93706,0 -10.75,-4.81294 -10.75,-10.75c0,-5.93706 4.81294,-10.75 10.75,-10.75h69.875v-5.375zM77.9375,53.75v5.375h5.375v-5.375zM88.6875,53.75v5.375h5.375v-5.375zM129,104.8125h16.125v13.83643l-5.96289,-7.45361c-0.5104,-0.63749 -1.28297,-1.00832 -2.09961,-1.00781c-0.81664,-0.00051 -1.58921,0.37032 -2.09961,1.00781l-5.96289,7.45361zM112.875,139.75v5.375h5.375v-5.375zM123.625,139.75v5.375h5.375v-5.375z"></path></g></g></svg>