<svg class="hobbie_cell__img" xmlns="http://www.w3.org/2000/svg" x="0px" y="0px"
                            width="50" height="50"
                            viewBox="0 0 172 172"
                            style=" fill:#000000;"><g fill="none" fill-rule="nonzero" stroke="none" stroke-width="1" stroke-linecap="butt" stroke-linejoin="miter" stroke-miterlimit="10" stroke-dasharray="" stroke-dashoffset="0" font-family="none" font-weight="none" font-size="none" text-anchor="none" style="mix-blend-mode: normal"><path d="M0,172v-172h172v172z" fill="none"></path><g fill="#ead017"><path d="M69.52332,1.12854c-0.29021,0.00512 -0.57798,0.05992 -0.86084,0.16272l-15.13293,5.50623c-1.3975,0.50794 -2.11414,2.04855 -1.6062,3.44336l15.6106,42.93701l-33.65149,12.24597l-18.07239,-20.21399c-0.72831,-0.817 -1.88377,-1.1138 -2.91846,-0.73486l-10.10437,3.67957c-1.3975,0.50525 -2.11414,2.04599 -1.6062,3.43811l14.70251,40.40698c0.387,1.06425 1.39872,1.76892 2.52478,1.76892h0.03149l56.9519,-0.69812c0.301,-0.00269 0.6049,-0.06316 0.88708,-0.16797l5.04431,-1.83716l14.70776,40.40698c0.39506,1.09113 1.42828,1.76892 2.52478,1.76892c0.30369,0 0.61489,-0.05253 0.91858,-0.16272l15.15393,-5.51672c1.1395,-0.41387 1.86055,-1.53855 1.75842,-2.74524l-3.75305,-45.1416l49.50354,-18.03039c5.28631,-1.92425 8.83936,-7.00896 8.83936,-12.65539c0.00269,-1.5265 -0.26804,-3.05858 -0.8136,-4.5824c-2.33544,-6.31025 -9.31147,-10.08863 -15.93079,-8.40894l-9.24878,-5.6427c-3.49375,-2.11506 -7.71472,-2.52848 -11.57935,-1.13904l-33.84045,12.31421l-27.79358,-39.26794c-0.52406,-0.73973 -1.37596,-1.14916 -2.24658,-1.13379zM68.57324,7.04419l25.75696,36.38623l-21.7467,7.91553l-14.69201,-40.41223zM138.79993,33.81946c1.18787,0.1159 2.34409,0.49563 3.39087,1.12854l2.57727,1.56946l-7.88928,2.87121l1.83716,5.05481l11.92578,-4.34094l1.82141,1.11279c0.69069,0.42462 1.54388,0.50495 2.29907,0.2362c4.2785,-1.52381 8.87295,0.79067 10.35107,4.79236c0.32519,0.91375 0.49341,1.83674 0.49341,2.75049c-0.00269,3.39431 -2.13295,6.45021 -5.30151,7.60583l-48.1283,17.52649l-0.86084,-10.38257c-0.06719,-0.83581 -0.52146,-1.59037 -1.22827,-2.04187c-0.70681,-0.4515 -1.5905,-0.54195 -2.37256,-0.26245l-30.30261,11.0282c-0.66919,0.24456 -1.21597,0.74599 -1.51697,1.39099c-0.301,0.64769 -0.3338,1.38318 -0.08923,2.05237l3.67957,10.10437l-4.61914,1.68494l-54.5846,0.67188l-3.94202,-10.83923l118.89038,-43.26245c1.16234,-0.41925 2.38146,-0.56732 3.56934,-0.45142zM124.24439,43.98682l-5.04956,1.83716l1.83716,5.04956l5.04956,-1.83191zM114.14526,47.66638l-5.04956,1.83716l1.83716,5.04956l5.04956,-1.83716zM13.01758,50.14917l15.43213,17.25354l-13.95191,5.07581l-7.34863,-20.19299zM104.04614,51.34595l-5.04956,1.83191l1.83716,5.05481l5.04956,-1.83716zM93.94177,55.02026l-5.04956,1.83716l1.83716,5.04956l5.04956,-1.83716zM83.8374,58.69458l-5.04956,1.83716l1.83716,5.04956l5.04956,-1.83191zM73.73828,62.37414l-5.04956,1.83716l1.83716,5.04956l5.04956,-1.83716zM63.63391,66.04846l-5.04956,1.83716l1.83716,5.04956l5.04956,-1.83191zM106.25073,67.69665l4.61389,55.52417l-10.70276,3.88953l-18.38208,-50.5061zM53.54004,69.71753l-5.04956,1.84241l1.83716,5.04956l5.04956,-1.84241zM43.43567,73.3971l-5.04956,1.83716l1.83716,5.04956l5.05481,-1.83716zM75.25,107.5c-3.49912,0 -6.45647,2.25481 -7.56909,5.375h-16.61841c-8.89294,0 -16.125,7.23206 -16.125,16.125c0,8.89294 7.23206,16.125 16.125,16.125h45.6875v-5.375h-45.6875c-5.92862,0 -10.75,-4.82137 -10.75,-10.75c0,-5.92863 4.82138,-10.75 10.75,-10.75h16.61841c1.11263,3.12019 4.06997,5.375 7.56909,5.375c4.44513,0 8.0625,-3.61737 8.0625,-8.0625c0,-4.44513 -3.61737,-8.0625 -8.0625,-8.0625zM75.25,112.875c1.4835,0 2.6875,1.20669 2.6875,2.6875c0,1.48081 -1.204,2.6875 -2.6875,2.6875c-1.4835,0 -2.6875,-1.20669 -2.6875,-2.6875c0,-1.48081 1.204,-2.6875 2.6875,-2.6875zM102.125,139.75v5.375h5.375v-5.375zM112.875,139.75v5.375h22.84375c3.70606,0 6.71875,3.01538 6.71875,6.71875c0,3.70337 -3.01269,6.71875 -6.71875,6.71875h-84.65625v5.375h84.65625c6.66769,0 12.09375,-5.42606 12.09375,-12.09375c0,-6.66769 -5.42606,-12.09375 -12.09375,-12.09375zM13.4375,153.1875c-4.44512,0 -8.0625,3.61737 -8.0625,8.0625c0,4.44513 3.61738,8.0625 8.0625,8.0625c3.49912,0 6.45647,-2.25481 7.56909,-5.375h24.68091v-5.375h-24.68091c-1.11262,-3.12019 -4.06997,-5.375 -7.56909,-5.375zM13.4375,158.5625c1.4835,0 2.6875,1.20669 2.6875,2.6875c0,1.48081 -1.204,2.6875 -2.6875,2.6875c-1.4835,0 -2.6875,-1.20669 -2.6875,-2.6875c0,-1.48081 1.204,-2.6875 2.6875,-2.6875z"></path></g></g></svg>